[img]http://leetleech.org/images/04699679063624403304.jpg[/img]

The Penguins of Madagascar New to the Zoo (2009) DVDRip XviD-SKITTLES

Video
ID                               : 0
Format                           : MPEG-4 Visual
Format profile                   : Advanced Simple@L5
Format settings, BVOP            : Yes
Format settings, QPel            : No
Format settings, GMC             : No warppoints
Format settings, Matrix          : Default (H.263)
Muxing mode                      : Packed bitstream
Codec ID                         : XVID
Codec ID/Hint                    : XviD
Duration                         : 1h 33mn
Bit rate                         : 912 Kbps
Width                            : 608 pixels
Height                           : 336 pixels
Display aspect ratio             : 16:9
Frame rate                       : 23.976 fps
Color space                      : YUV
Chroma subsampling               : 4:2:0
Bit depth                        : 8 bits
Scan type                        : Progressive
Bits/(Pixel*Frame)               : 0.186
Stream size                      : 612 MiB (87%)
Writing library                  : XviD 1.2.1 (UTC 2008-12-04)

Audio
ID                               : 1
Format                           : MPEG Audio
Format version                   : Version 1
Format profile                   : Layer 3
Mode                             : Joint stereo
Mode extension                   : MS Stereo
Codec ID                         : 55
Codec ID/Hint                    : MP3
Duration                         : 1h 33mn
Bit rate mode                    : Constant
Bit rate                         : 128 Kbps
Channel(s)                       : 2 channels
Sampling rate                    : 48.0 KHz
Stream size                      : 85.8 MiB (12%)
Alignment                        : Aligned on interleaves
Interleave, duration             : 42 ms (1.00 video frame)
Interleave, preload duration     : 504 ms
 
http://www.imdb.com/title/tt0892700/

James Patrick Stuart	 ... 	Private / ... (32 episodes, 2007-2010)
Tom McGrath	... 	Skipper (31 episodes, 2008-2010)
Danny Jacobs	... 	King Julien / ... (30 episodes, 2008-2010)
Andy Richter	... 	Mort (30 episodes, 2008-2010)
Jeff Bennett	... 	Kowalski / ... (29 episodes, 2008-2010)
Kevin Michael Richardson	... 	Maurice / ... (29 episodes, 2008-2010)
John Di Maggio	... 	Rico / ... (27 episodes, 2008-2010)
Nicole Sullivan	... 	Marlene (27 episodes, 2009-2010)
Mary Scheer	... 	Alice / ... (16 episodes, 2009-2010)


Genre:
Animation | Comedy | Family 

Plot:
The daily adventures of penguins living in New York's Central Park Zoo.


[img]http://leetleech.org/images/33656747413379954056.png[/img]
[img]http://leetleech.org/images/25587965245209532088.png[/img]
[img]http://leetleech.org/images/19828756286495946056.png[/img]
[img]http://leetleech.org/images/10573746374078189472.png[/img]
[img]http://leetleech.org/images/94036489832844131677.png[/img]
[img]http://leetleech.org/images/93714431458764572868.png[/img]